<svg xmlns="http://www.w3.org/2000/svg" viewBox="0 0 58.75 79.56"><defs><style>.cls-1{fill:#65c295;}.cls-2{fill:#f1f2f2;}</style></defs><g id="Layer_2" data-name="Layer 2"><g id="logo_sketch" data-name="logo sketch"><path class="cls-1" d="M0,28.71q0-11.24,8.87-20T29.24,0A28.68,28.68,0,0,1,49.91,8.61q8.84,8.59,8.84,20.1T50.08,49.08q-8.69,8.81-20,8.8a29.25,29.25,0,0,1-21.1-8.7Q0,40.48,0,28.71Zm47.86-.65a16.4,16.4,0,0,0-5.31-12.15,17.53,17.53,0,0,0-12.63-5.16A18,18,0,0,0,17,16a16.73,16.73,0,0,0-5.41,12.48,16.17,16.17,0,0,0,5.48,12.12,18.09,18.09,0,0,0,12.86,5.19,17.31,17.31,0,0,0,12.56-5.32A16.89,16.89,0,0,0,47.86,28.06Z"/><path class="cls-2" d="M45.69,61.05,29.54,79.56,13.61,60.87l5.62,2a44.5,44.5,0,0,0,20.4.18Z"/></g></g></svg>